<svg id="Layer_1" enable-background="new 0 0 512 512" height="512" viewBox="0 0 512 512" width="512" xmlns="http://www.w3.org/2000/svg"><g><path d="m32.133 321.333v80.333c0 8.284 6.716 15 15 15h417.733c8.284 0 15-6.716 15-15v-80.333c0-8.284-6.716-15-15-15h-417.733c-8.284 0-15 6.716-15 15z" fill="#844632"/><path d="m479.867 401.667v-80.333c0-8.284-6.716-15-15-15h-208.867v110.333h208.867c8.284 0 15-6.716 15-15z" fill="#4e281e"/><path d="m32.133 241v80.333h447.733v-80.333c0-8.284-6.716-15-15-15h-417.733c-8.284 0-15 6.715-15 15z" fill="#b96446"/><path d="m479.867 241c0-8.284-6.716-15-15-15h-208.867v95.333h223.867z" fill="#844632"/><path d="m256 94.267c-8.284 0-15-6.716-15-15 0-43.708 35.559-79.267 79.267-79.267 8.284 0 15 6.716 15 15s-6.716 15-15 15c-27.166 0-49.267 22.101-49.267 49.267 0 8.284-6.716 15-15 15z" fill="#48cda2"/><circle cx="256" cy="127.467" fill="#ef447c" r="63.2"/><path d="m256 190.667v-126.4c34.849 0 63.2 28.352 63.2 63.2s-28.351 63.2-63.2 63.2z" fill="#d60065"/><path d="m424.7 160.667h-337.4c-30.419 0-55.167 24.748-55.167 55.167v25.166h63.2c22.18 0 40.167 17.983 40.167 40.167v80.333c0 22.184 17.987 40.167 40.167 40.167s40.167-17.983 40.167-40.167v-80.333c-.001-22.184 17.986-40.167 40.166-40.167s40.167 17.983 40.167 40.167 17.987 40.167 40.167 40.167 40.167-17.983 40.167-40.167c0-22.183 17.987-40.167 40.167-40.167h63.2v-25.166c-.001-30.419-24.749-55.167-55.168-55.167z" fill="#fff5e1"/><path d="m296.167 281.167c0 22.184 17.987 40.167 40.167 40.167s40.167-17.983 40.167-40.167c0-22.183 17.987-40.167 40.167-40.167h63.2v-25.166c0-30.419-24.748-55.167-55.167-55.167h-168.701v80.333c22.18 0 40.167 17.983 40.167 40.167z" fill="#ffe6cf"/><path d="m416.666 512h-321.332c-3.979 0-7.793-1.581-10.606-4.394l-80.334-80.333c-4.29-4.29-5.573-10.742-3.252-16.347 2.322-5.605 7.791-9.26 13.858-9.26h482c6.067 0 11.537 3.655 13.858 9.26s1.038 12.057-3.252 16.347l-80.333 80.333c-2.813 2.813-6.628 4.394-10.607 4.394z" fill="#67cfe6"/><path d="m427.273 507.606 80.333-80.333c4.29-4.29 5.573-10.742 3.252-16.347-2.322-5.605-7.792-9.26-13.858-9.26h-241v110.334h160.666c3.979 0 7.794-1.581 10.607-4.394z" fill="#5ea6f3"/></g></svg>